{
  "accessors": [
    {
      "bufferView": 2,
      "componentType": 5126,
      "count": 1790,
      "max": [
        0.03500000014901161,
        0.007499999832361937,
        0.11999998986721039
      ],
      "min": [
        -0.03500000014901161,
        -0.007499999832361937,
        0.0
      ],
      "type": "VEC3"
    },
    {
      "bufferView": 2,
      "byteOffset": 21480,
      "componentType": 5126,
      "count": 1790,
      "max": [
        1.0,
        1.0,
        1.0
      ],
      "min": [
        -1.0,
        -1.0,
        -1.0
      ],
      "type": "VEC3"
    },
    {
      "bufferView": 3,
      "componentType": 5126,
      "count": 1790,
      "max": [
        1.0,
        0.9999951720237732,
        0.9917123913764954,
        1.0
      ],
      "min": [
        -0.9956846237182617,
        -0.999967634677887,
        -0.9999707937240601,
        -1.0
      ],
      "type": "VEC4"
    },
    {
      "bufferView": 1,
      "componentType": 5126,
      "count": 1790,
      "max": [
        0.999998927116394,
        0.9794492125511169
      ],
      "min": [
        9.98377799987793e-07,
        1.0281801223754883e-06
      ],
      "type": "VEC2"
    },
    {
      "bufferView": 1,
      "byteOffset": 14320,
      "componentType": 5126,
      "count": 1790,
      "max": [
        0.999998927116394,
        0.9794492125511169
      ],
      "min": [
        9.98377799987793e-07,
        1.0281801223754883e-06
      ],
      "type": "VEC2"
    },
    {
      "bufferView": 1,
      "byteOffset": 28640,
      "componentType": 5126,
      "count": 1790,
      "max": [
        0.999998927116394,
        0.9794492125511169
      ],
      "min": [
        9.98377799987793e-07,
        1.0281801223754883e-06
      ],
      "type": "VEC2"
    },
    {
      "bufferView": 1,
      "byteOffset": 42960,
      "componentType": 5126,
      "count": 1790,
      "max": [
        0.999998927116394,
        0.9794492125511169
      ],
      "min": [
        9.98377799987793e-07,
        1.0281801223754883e-06
      ],
      "type": "VEC2"
    },
    {
      "bufferView": 1,
      "byteOffset": 57280,
      "componentType": 5126,
      "count": 1790,
      "max": [
        0.999998927116394,
        0.9794492125511169
      ],
      "min": [
        9.98377799987793e-07,
        1.0281801223754883e-06
      ],
      "type": "VEC2"
    },
    {
      "bufferView": 1,
      "byteOffset": 71600,
      "componentType": 5126,
      "count": 1790,
      "max": [
        0.999998927116394,
        0.9794492125511169
      ],
      "min": [
        9.98377799987793e-07,
        1.0281801223754883e-06
      ],
      "type": "VEC2"
    },
    {
      "bufferView": 1,
      "byteOffset": 85920,
      "componentType": 5126,
      "count": 1790,
      "max": [
        0.999998927116394,
        0.9794492125511169
      ],
      "min": [
        9.98377799987793e-07,
        1.0281801223754883e-06
      ],
      "type": "VEC2"
    },
    {
      "bufferView": 1,
      "byteOffset": 100240,
      "componentType": 5126,
      "count": 1790,
      "max": [
        0.999998927116394,
        0.9794492125511169
      ],
      "min": [
        9.98377799987793e-07,
        1.0281801223754883e-06
      ],
      "type": "VEC2"
    },
    {
      "bufferView": 1,
      "byteOffset": 114560,
      "componentType": 5126,
      "count": 1790,
      "max": [
        0.999998927116394,
        0.9794492125511169
      ],
      "min": [
        9.98377799987793e-07,
        1.0281801223754883e-06
      ],
      "type": "VEC2"
    },
    {
      "bufferView": 1,
      "byteOffset": 128880,
      "componentType": 5126,
      "count": 1790,
      "max": [
        0.999998927116394,
        0.9794492125511169
      ],
      "min": [
        9.98377799987793e-07,
        1.0281801223754883e-06
      ],
      "type": "VEC2"
    },
    {
      "bufferView": 0,
      "componentType": 5125,
      "count": 2472,
      "type": "SCALAR"
    },
    {
      "bufferView": 2,
      "byteOffset": 42960,
      "componentType": 5126,
      "count": 1303,
      "max": [
        0.0018466915935277939,
        0.007727110292762518,
        0.10547396540641785
      ],
      "min": [
        -0.002858900697901845,
        0.0059665110893547535,
        0.10076671838760376
      ],
      "type": "VEC3"
    },
    {
      "bufferView": 2,
      "byteOffset": 58596,
      "componentType": 5126,
      "count": 1303,
      "max": [
        0.9992662072181702,
        1.0,
        0.9996183514595032
      ],
      "min": [
        -0.9992662072181702,
        -1.0,
        -0.999617874622345
      ],
      "type": "VEC3"
    },
    {
      "bufferView": 3,
      "byteOffset": 28640,
      "componentType": 5126,
      "count": 1303,
      "max": [
        0.9990717768669128,
        0.9998834729194641,
        0.9999381899833679,
        1.0
      ],
      "min": [
        -0.9999390840530396,
        -0.9999140501022339,
        -0.9991215467453003,
        -1.0
      ],
      "type": "VEC4"
    },
    {
      "bufferView": 1,
      "byteOffset": 143200,
      "componentType": 5126,
      "count": 1303,
      "max": [
        0.0808778926730156,
        0.08905819058418274
      ],
      "min": [
        0.0019541317597031593,
        1.0262010619044304e-06
      ],
      "type": "VEC2"
    },
    {
      "bufferView": 1,
      "byteOffset": 153624,
      "componentType": 5126,
      "count": 1303,
      "max": [
        0.0808778926730156,
        0.08905819058418274
      ],
      "min": [
        0.0019541317597031593,
        1.0262010619044304e-06
      ],
      "type": "VEC2"
    },
    {
      "bufferView": 1,
      "byteOffset": 164048,
      "componentType": 5126,
      "count": 1303,
      "max": [
        0.0808778926730156,
        0.08905819058418274
      ],
      "min": [
        0.0019541317597031593,
        1.0262010619044304e-06
      ],
      "type": "VEC2"
    },
    {
      "bufferView": 1,
      "byteOffset": 174472,
      "componentType": 5126,
      "count": 1303,
      "max": [
        0.0808778926730156,
        0.08905819058418274
      ],
      "min": [
        0.0019541317597031593,
        1.0262010619044304e-06
      ],
      "type": "VEC2"
    },
    {
      "bufferView": 1,
      "byteOffset": 184896,
      "componentType": 5126,
      "count": 1303,
      "max": [
        0.0808778926730156,
        0.08905819058418274
      ],
      "min": [
        0.0019541317597031593,
        1.0262010619044304e-06
      ],
      "type": "VEC2"
    },
    {
      "bufferView": 1,
      "byteOffset": 195320,
      "componentType": 5126,
      "count": 1303,
      "max": [
        0.0808778926730156,
        0.08905819058418274
      ],
      "min": [
        0.0019541317597031593,
        1.0262010619044304e-06
      ],
      "type": "VEC2"
    },
    {
      "bufferView": 1,
      "byteOffset": 205744,
      "componentType": 5126,
      "count": 1303,
      "max": [
        0.0808778926730156,
        0.08905819058418274
      ],
      "min": [
        0.0019541317597031593,
        1.0262010619044304e-06
      ],
      "type": "VEC2"
    },
    {
      "bufferView": 1,
      "byteOffset": 216168,
      "componentType": 5126,
      "count": 1303,
      "max": [
        0.0808778926730156,
        0.08905819058418274
      ],
      "min": [
        0.0019541317597031593,
        1.0262010619044304e-06
      ],
      "type": "VEC2"
    },
    {
      "bufferView": 1,
      "byteOffset": 226592,
      "componentType": 5126,
      "count": 1303,
      "max": [
        0.0808778926730156,
        0.08905819058418274
      ],
      "min": [
        0.0019541317597031593,
        1.0262010619044304e-06
      ],
      "type": "VEC2"
    },
    {
      "bufferView": 1,
      "byteOffset": 237016,
      "componentType": 5126,
      "count": 1303,
      "max": [
        0.0808778926730156,
        0.08905819058418274
      ],
      "min": [
        0.0019541317597031593,
        1.0262010619044304e-06
      ],
      "type": "VEC2"
    },
    {
      "bufferView": 0,
      "byteOffset": 9888,
      "componentType": 5125,
      "count": 1818,
      "type": "SCALAR"
    },
    {
      "bufferView": 2,
      "byteOffset": 74232,
      "componentType": 5126,
      "count": 1280,
      "max": [
        0.00241883029229939,
        0.007727110292762518,
        0.019485067576169968
      ],
      "min": [
        -0.0022902206983417273,
        0.0059665110893547535,
        0.014776039868593216
      ],
      "type": "VEC3"
    },
    {
      "bufferView": 2,
      "byteOffset": 89592,
      "componentType": 5126,
      "count": 1280,
      "max": [
        1.0,
        1.0,
        1.0
      ],
      "min": [
        -1.0,
        -1.0,
        -0.9999900460243225
      ],
      "type": "VEC3"
    },
    {
      "bufferView": 3,
      "byteOffset": 49488,
      "componentType": 5126,
      "count": 1280,
      "max": [
        0.9997540712356567,
        0.999611496925354,
        0.999890923500061,
        1.0
      ],
      "min": [
        -0.9999363422393799,
        -0.9999805092811584,
        -0.9998891949653625,
        -1.0
      ],
      "type": "VEC4"
    },
    {
      "bufferView": 1,
      "byteOffset": 247440,
      "componentType": 5126,
      "count": 1280,
      "max": [
        0.0559379905462265,
        0.08887238800525665
      ],
      "min": [
        1.0093890523421578e-06,
        1.0170042514801025e-06
      ],
      "type": "VEC2"
    },
    {
      "bufferView": 1,
      "byteOffset": 257680,
      "componentType": 5126,
      "count": 1280,
      "max": [
        0.0559379905462265,
        0.08887238800525665
      ],
      "min": [
        1.0093890523421578e-06,
        1.0170042514801025e-06
      ],
      "type": "VEC2"
    },
    {
      "bufferView": 1,
      "byteOffset": 267920,
      "componentType": 5126,
      "count": 1280,
      "max": [
        0.0559379905462265,
        0.08887238800525665
      ],
      "min": [
        1.0093890523421578e-06,
        1.0170042514801025e-06
      ],
      "type": "VEC2"
    },
    {
      "bufferView": 1,
      "byteOffset": 278160,
      "componentType": 5126,
      "count": 1280,
      "max": [
        0.0559379905462265,
        0.08887238800525665
      ],
      "min": [
        1.0093890523421578e-06,
        1.0170042514801025e-06
      ],
      "type": "VEC2"
    },
    {
      "bufferView": 1,
      "byteOffset": 288400,
      "componentType": 5126,
      "count": 1280,
      "max": [
        0.0559379905462265,
        0.08887238800525665
      ],
      "min": [
        1.0093890523421578e-06,
        1.0170042514801025e-06
      ],
      "type": "VEC2"
    },
    {
      "bufferView": 1,
      "byteOffset": 298640,
      "componentType": 5126,
      "count": 1280,
      "max": [
        0.0559379905462265,
        0.08887238800525665
      ],
      "min": [
        1.0093890523421578e-06,
        1.0170042514801025e-06
      ],
      "type": "VEC2"
    },
    {
      "bufferView": 1,
      "byteOffset": 308880,
      "componentType": 5126,
      "count": 1280,
      "max": [
        0.0559379905462265,
        0.08887238800525665
      ],
      "min": [
        1.0093890523421578e-06,
        1.0170042514801025e-06
      ],
      "type": "VEC2"
    },
    {
      "bufferView": 1,
      "byteOffset": 319120,
      "componentType": 5126,
      "count": 1280,
      "max": [
        0.0559379905462265,
        0.08887238800525665
      ],
      "min": [
        1.0093890523421578e-06,
        1.0170042514801025e-06
      ],
      "type": "VEC2"
    },
    {
      "bufferView": 1,
      "byteOffset": 329360,
      "componentType": 5126,
      "count": 1280,
      "max": [
        0.0559379905462265,
        0.08887238800525665
      ],
      "min": [
        1.0093890523421578e-06,
        1.0170042514801025e-06
      ],
      "type": "VEC2"
    },
    {
      "bufferView": 1,
      "byteOffset": 339600,
      "componentType": 5126,
      "count": 1280,
      "max": [
        0.0559379905462265,
        0.08887238800525665
      ],
      "min": [
        1.0093890523421578e-06,
        1.0170042514801025e-06
      ],
      "type": "VEC2"
    },
    {
      "bufferView": 0,
      "byteOffset": 17160,
      "componentType": 5125,
      "count": 1818,
      "type": "SCALAR"
    },
    {
      "bufferView": 2,
      "byteOffset": 104952,
      "componentType": 5126,
      "count": 1121,
      "max": [
        0.004752974957227707,
        0.0179379191249609,
        0.08022210001945496
      ],
      "min": [
        -0.0046119107864797115,
        -0.02301659621298313,
        0.04717657342553139
      ],
      "type": "VEC3"
    },
    {
      "bufferView": 2,
      "byteOffset": 118404,
      "componentType": 5126,
      "count": 1121,
      "max": [
        0.9997954964637756,
        0.998694658279419,
        0.9985505938529968
      ],
      "min": [
        -0.9997945427894592,
        -0.9996829032897949,
        -1.0
      ],
      "type": "VEC3"
    },
    {
      "bufferView": 3,
      "byteOffset": 69968,
      "componentType": 5126,
      "count": 1121,
      "max": [
        1.0,
        0.9995135068893433,
        0.9934998750686646,
        1.0
      ],
      "min": [
        -0.9999996423721313,
        -0.9961960911750793,
        -0.9999322295188904,
        -1.0
      ],
      "type": "VEC4"
    },
    {
      "bufferView": 1,
      "byteOffset": 349840,
      "componentType": 5126,
      "count": 1121,
      "max": [
        0.4553071856498718,
        0.6679028272628784
      ],
      "min": [
        0.0019541317597031593,
        0.001954146893694997
      ],
      "type": "VEC2"
    },
    {
      "bufferView": 1,
      "byteOffset": 358808,
      "componentType": 5126,
      "count": 1121,
      "max": [
        0.4553071856498718,
        0.6679028272628784
      ],
      "min": [
        0.0019541317597031593,
        0.001954146893694997
      ],
      "type": "VEC2"
    },
    {
      "bufferView": 1,
      "byteOffset": 367776,
      "componentType": 5126,
      "count": 1121,
      "max": [
        0.4553071856498718,
        0.6679028272628784
      ],
      "min": [
        0.0019541317597031593,
        0.001954146893694997
      ],
      "type": "VEC2"
    },
    {
      "bufferView": 1,
      "byteOffset": 376744,
      "componentType": 5126,
      "count": 1121,
      "max": [
        0.4553071856498718,
        0.6679028272628784
      ],
      "min": [
        0.0019541317597031593,
        0.001954146893694997
      ],
      "type": "VEC2"
    },
    {
      "bufferView": 1,
      "byteOffset": 385712,
      "componentType": 5126,
      "count": 1121,
      "max": [
        0.4553071856498718,
        0.6679028272628784
      ],
      "min": [
        0.0019541317597031593,
        0.001954146893694997
      ],
      "type": "VEC2"
    },
    {
      "bufferView": 1,
      "byteOffset": 394680,
      "componentType": 5126,
      "count": 1121,
      "max": [
        0.4553071856498718,
        0.6679028272628784
      ],
      "min": [
        0.0019541317597031593,
        0.001954146893694997
      ],
      "type": "VEC2"
    },
    {
      "bufferView": 1,
      "byteOffset": 403648,
      "componentType": 5126,
      "count": 1121,
      "max": [
        0.4553071856498718,
        0.6679028272628784
      ],
      "min": [
        0.0019541317597031593,
        0.001954146893694997
      ],
      "type": "VEC2"
    },
    {
      "bufferView": 1,
      "byteOffset": 412616,
      "componentType": 5126,
      "count": 1121,
      "max": [
        0.4553071856498718,
        0.6679028272628784
      ],
      "min": [
        0.0019541317597031593,
        0.001954146893694997
      ],
      "type": "VEC2"
    },
    {
      "bufferView": 1,
      "byteOffset": 421584,
      "componentType": 5126,
      "count": 1121,
      "max": [
        0.4553071856498718,
        0.6679028272628784
      ],
      "min": [
        0.0019541317597031593,
        0.001954146893694997
      ],
      "type": "VEC2"
    },
    {
      "bufferView": 1,
      "byteOffset": 430552,
      "componentType": 5126,
      "count": 1121,
      "max": [
        0.4553071856498718,
        0.6679028272628784
      ],
      "min": [
        0.0019541317597031593,
        0.001954146893694997
      ],
      "type": "VEC2"
    },
    {
      "bufferView": 0,
      "byteOffset": 24432,
      "componentType": 5125,
      "count": 1518,
      "type": "SCALAR"
    }
  ],
  "asset": {
    "extras": {
      "author": "deicidio1978 (https://sketchfab.com/deicidio1978)",
      "license": "CC-BY-NC-4.0 (http://creativecommons.org/licenses/by-nc/4.0/)",
      "source": "https://sketchfab.com/3d-models/dirty-light-switch-ed82d1750d9d41c18e22c7825151bb48",
      "title": "Dirty Light Switch"
    },
    "generator": "Sketchfab-15.37.0",
    "version": "2.0"
  },
  "bufferViews": [
    {
      "buffer": 0,
      "byteLength": 30504,
      "name": "floatBufferViews",
      "target": 34963
    },
    {
      "buffer": 0,
      "byteLength": 439520,
      "byteOffset": 30504,
      "byteStride": 8,
      "name": "floatBufferViews",
      "target": 34962
    },
    {
      "buffer": 0,
      "byteLength": 131856,
      "byteOffset": 470024,
      "byteStride": 12,
      "name": "floatBufferViews",
      "target": 34962
    },
    {
      "buffer": 0,
      "byteLength": 87904,
      "byteOffset": 601880,
      "byteStride": 16,
      "name": "floatBufferViews",
      "target": 34962
    }
  ],
  "buffers": [
    {
      "byteLength": 689784,
      "uri": "scene.bin"
    }
  ],
  "images": [
    {
      "uri": "textures/DefaultMaterial_baseColor.png"
    },
    {
      "uri": "textures/DefaultMaterial_metallicRoughness.png"
    },
    {
      "uri": "textures/DefaultMaterial_normal.png"
    }
  ],
  "materials": [
    {
      "doubleSided": true,
      "name": "DefaultMaterial",
      "normalTexture": {
        "index": 2
      },
      "occlusionTexture": {
        "index": 1
      },
      "pbrMetallicRoughness": {
        "baseColorTexture": {
          "index": 0
        },
        "metallicRoughnessTexture": {
          "index": 1
        }
      }
    }
  ],
  "meshes": [
    {
      "name": "Body_DefaultMaterial_0",
      "primitives": [
        {
          "attributes": {
            "NORMAL": 1,
            "POSITION": 0,
            "TANGENT": 2,
            "TEXCOORD_0": 3,
            "TEXCOORD_1": 4,
            "TEXCOORD_2": 5,
            "TEXCOORD_3": 6,
            "TEXCOORD_4": 7,
            "TEXCOORD_5": 8,
            "TEXCOORD_6": 9,
            "TEXCOORD_7": 10,
            "TEXCOORD_8": 11,
            "TEXCOORD_9": 12
          },
          "indices": 13,
          "material": 0,
          "mode": 4
        }
      ]
    },
    {
      "name": "Screw_1_DefaultMaterial_0",
      "primitives": [
        {
          "attributes": {
            "NORMAL": 15,
            "POSITION": 14,
            "TANGENT": 16,
            "TEXCOORD_0": 17,
            "TEXCOORD_1": 18,
            "TEXCOORD_2": 19,
            "TEXCOORD_3": 20,
            "TEXCOORD_4": 21,
            "TEXCOORD_5": 22,
            "TEXCOORD_6": 23,
            "TEXCOORD_7": 24,
            "TEXCOORD_8": 25,
            "TEXCOORD_9": 26
          },
          "indices": 27,
          "material": 0,
          "mode": 4
        }
      ]
    },
    {
      "name": "Screw_2_DefaultMaterial_0",
      "primitives": [
        {
          "attributes": {
            "NORMAL": 29,
            "POSITION": 28,
            "TANGENT": 30,
            "TEXCOORD_0": 31,
            "TEXCOORD_1": 32,
            "TEXCOORD_2": 33,
            "TEXCOORD_3": 34,
            "TEXCOORD_4": 35,
            "TEXCOORD_5": 36,
            "TEXCOORD_6": 37,
            "TEXCOORD_7": 38,
            "TEXCOORD_8": 39,
            "TEXCOORD_9": 40
          },
          "indices": 41,
          "material": 0,
          "mode": 4
        }
      ]
    },
    {
      "name": "Switch_DefaultMaterial_0",
      "primitives": [
        {
          "attributes": {
            "NORMAL": 43,
            "POSITION": 42,
            "TANGENT": 44,
            "TEXCOORD_0": 45,
            "TEXCOORD_1": 46,
            "TEXCOORD_2": 47,
            "TEXCOORD_3": 48,
            "TEXCOORD_4": 49,
            "TEXCOORD_5": 50,
            "TEXCOORD_6": 51,
            "TEXCOORD_7": 52,
            "TEXCOORD_8": 53,
            "TEXCOORD_9": 54
          },
          "indices": 55,
          "material": 0,
          "mode": 4
        }
      ]
    }
  ],
  "nodes": [
    {
      "children": [
        1
      ],
      "matrix": [
        -1.0,
        -2.832769343193999e-16,
        -3.1450057482662597e-32,
        0.0,
        -4.8795769672831353e-32,
        6.123232939436859e-17,
        1.0,
        0.0,
        -2.832769343193999e-16,
        1.0,
        -6.123232939436859e-17,
        0.0,
        0.0,
        0.0,
        0.0,
        1.0
      ],
      "name": "Sketchfab_model"
    },
    {
      "children": [
        2
      ],
      "matrix": [
        0.009999999776482582,
        0.0,
        0.0,
        0.0,
        0.0,
        0.0,
        0.009999999776482582,
        0.0,
        0.0,
        -0.009999999776482582,
        0.0,
        0.0,
        0.0,
        0.0,
        0.0,
        1.0
      ],
      "name": "Switch.fbx"
    },
    {
      "children": [
        3,
        5,
        7,
        9
      ],
      "name": "RootNode"
    },
    {
      "children": [
        4
      ],
      "matrix": [
        100.0,
        0.0,
        0.0,
        0.0,
        0.0,
        -1.331580541386046e-05,
        -99.99999999999912,
        0.0,
        0.0,
        99.99999999999912,
        -1.331580541386046e-05,
        0.0,
        0.0,
        0.0,
        0.0,
        1.0
      ],
      "name": "Body"
    },
    {
      "mesh": 0,
      "name": "Body_DefaultMaterial_0"
    },
    {
      "children": [
        6
      ],
      "matrix": [
        100.0,
        0.0,
        0.0,
        0.0,
        0.0,
        -1.331580541386046e-05,
        -99.99999999999912,
        0.0,
        0.0,
        99.99999999999912,
        -1.331580541386046e-05,
        0.0,
        0.0,
        0.0,
        0.0,
        1.0
      ],
      "name": "Screw_1"
    },
    {
      "mesh": 1,
      "name": "Screw_1_DefaultMaterial_0"
    },
    {
      "children": [
        8
      ],
      "matrix": [
        100.0,
        0.0,
        0.0,
        0.0,
        0.0,
        -1.331580541386046e-05,
        -99.99999999999912,
        0.0,
        0.0,
        99.99999999999912,
        -1.331580541386046e-05,
        0.0,
        0.0,
        0.0,
        0.0,
        1.0
      ],
      "name": "Screw_2"
    },
    {
      "mesh": 2,
      "name": "Screw_2_DefaultMaterial_0"
    },
    {
      "children": [
        10
      ],
      "matrix": [
        100.0,
        0.0,
        0.0,
        0.0,
        0.0,
        -1.331580541386046e-05,
        -99.99999999999912,
        0.0,
        0.0,
        99.99999999999912,
        -1.331580541386046e-05,
        0.0,
        0.0,
        0.0,
        0.0,
        1.0
      ],
      "name": "Switch"
    },
    {
      "mesh": 3,
      "name": "Switch_DefaultMaterial_0"
    }
  ],
  "samplers": [
    {
      "magFilter": 9729,
      "minFilter": 9987,
      "wrapS": 10497,
      "wrapT": 10497
    }
  ],
  "scene": 0,
  "scenes": [
    {
      "name": "Sketchfab_Scene",
      "nodes": [
        0
      ]
    }
  ],
  "textures": [
    {
      "sampler": 0,
      "source": 0
    },
    {
      "sampler": 0,
      "source": 1
    },
    {
      "sampler": 0,
      "source": 2
    }
  ]
}
